<svg width="1133" height="643" xmlns="http://www.w3.org/2000/svg"><g><path d="M-98.8225532323122,-28.31676892004907L-103.21284513920546,90.96395717002451L58.2245388161391,26.083867913112044Z" fill="#e6382d" stroke="#e6382d"></path><path d="M-98.8225532323122,-28.31676892004907L58.2245388161391,26.083867913112044L38.780439756810665,-95.00804638490081Z" fill="#eb2624" stroke="#eb2624"></path><path d="M38.780439756810665,-95.00804638490081L58.2245388161391,26.083867913112044L233.18413174711168,-56.19379933923483Z" fill="#f7392d" stroke="#f7392d"></path><path d="M38.780439756810665,-95.00804638490081L233.18413174711168,-56.19379933923483L336.52748010121286,-130.64113335683942Z" fill="#fc452b" stroke="#fc452b"></path><path d="M233.18413174711168,-56.19379933923483L58.2245388161391,26.083867913112044L263.54706667363644,20.600543478503823Z" fill="#fb5c3d" stroke="#fb5c3d"></path><path d="M233.18413174711168,-56.19379933923483L263.54706667363644,20.600543478503823L336.52748010121286,-130.64113335683942Z" fill="#fe593c" stroke="#fe593c"></path><path d="M336.52748010121286,-130.64113335683942L263.54706667363644,20.600543478503823L419.6781471837312,112.80207384377718Z" fill="#fe7e50" stroke="#fe7e50"></path><path d="M336.52748010121286,-130.64113335683942L419.6781471837312,112.80207384377718L543.096253182739,-33.306954028084874Z" fill="#fe8659" stroke="#fe8659"></path><path d="M336.52748010121286,-130.64113335683942L543.096253182739,-33.306954028084874L641.6091361641884,-122.45755559764802Z" fill="#f47549" stroke="#f47549"></path><path d="M543.096253182739,-33.306954028084874L419.6781471837312,112.80207384377718L558.9404290728271,102.28113717399538Z" fill="#f4ad6a" stroke="#f4ad6a"></path><path d="M543.096253182739,-33.306954028084874L558.9404290728271,102.28113717399538L724.7816281579435,25.425820592790842Z" fill="#e59f5e" stroke="#e59f5e"></path><path d="M543.096253182739,-33.306954028084874L724.7816281579435,25.425820592790842L641.6091361641884,-122.45755559764802Z" fill="#e07b4c" stroke="#e07b4c"></path><path d="M641.6091361641884,-122.45755559764802L724.7816281579435,25.425820592790842L852.1686330903322,-82.36356591805816Z" fill="#cc6b3f" stroke="#cc6b3f"></path><path d="M641.6091361641884,-122.45755559764802L852.1686330903322,-82.36356591805816L1079.7929504234344,-75.57712937705219Z" fill="#b15e34" stroke="#b15e34"></path><path d="M852.1686330903322,-82.36356591805816L724.7816281579435,25.425820592790842L836.913501676172,81.26489158719778Z" fill="#bd834b" stroke="#bd834b"></path><path d="M852.1686330903322,-82.36356591805816L836.913501676172,81.26489158719778L947.761127371341,-67.81722776591778Z" fill="#ab6d42" stroke="#ab6d42"></path><path d="M852.1686330903322,-82.36356591805816L947.761127371341,-67.81722776591778L1079.7929504234344,-75.57712937705219Z" fill="#955031" stroke="#955031"></path><path d="M947.761127371341,-67.81722776591778L836.913501676172,81.26489158719778L977.8187191206962,106.66503240354359Z" fill="#a0844c" stroke="#a0844c"></path><path d="M947.761127371341,-67.81722776591778L977.8187191206962,106.66503240354359L1079.7929504234344,-75.57712937705219Z" fill="#8a623c" stroke="#8a623c"></path><path d="M1079.7929504234344,-75.57712937705219L977.8187191206962,106.66503240354359L1106.621299982071,120.49806911498308Z" fill="#807745" stroke="#807745"></path><path d="M1079.7929504234344,-75.57712937705219L1106.621299982071,120.49806911498308L1266.1240564193577,-26.99677557684481Z" fill="#805636" stroke="#805636"></path><path d="M1266.1240564193577,-26.99677557684481L1106.621299982071,120.49806911498308L1219.669740088284,173.74434574507177Z" fill="#807644" stroke="#807644"></path><path d="M1266.1240564193577,-26.99677557684481L1219.669740088284,173.74434574507177L1312.414791751653,129.34790049679577Z" fill="#806f40" stroke="#806f40"></path><path d="M-103.21284513920546,90.96395717002451L-126.70092950575054,856.4233190473169L-87.62925194576383,338.2051901612431Z" fill="#b77c47" stroke="#b77c47"></path><path d="M-103.21284513920546,90.96395717002451L-87.62925194576383,338.2051901612431L-75.34752345643938,259.69924670644104Z" fill="#e2815a" stroke="#e2815a"></path><path d="M-103.21284513920546,90.96395717002451L-75.34752345643938,259.69924670644104L57.07243057899177,255.6834519188851Z" fill="#e78456" stroke="#e78456"></path><path d="M-103.21284513920546,90.96395717002451L57.07243057899177,255.6834519188851L58.2245388161391,26.083867913112044Z" fill="#ec6f46" stroke="#ec6f46"></path><path d="M58.2245388161391,26.083867913112044L57.07243057899177,255.6834519188851L263.54706667363644,20.600543478503823Z" fill="#f87e4d" stroke="#f87e4d"></path><path d="M263.54706667363644,20.600543478503823L57.07243057899177,255.6834519188851L266.88632402569056,261.75889757461846Z" fill="#fbb067" stroke="#fbb067"></path><path d="M263.54706667363644,20.600543478503823L266.88632402569056,261.75889757461846L330.06949234753847,244.95824966579676Z" fill="#fec470" stroke="#fec470"></path><path d="M263.54706667363644,20.600543478503823L330.06949234753847,244.95824966579676L419.6781471837312,112.80207384377718Z" fill="#feb86b" stroke="#feb86b"></path><path d="M419.6781471837312,112.80207384377718L330.06949234753847,244.95824966579676L517.3409837018698,208.8737550470978Z" fill="#ffe088" stroke="#ffe088"></path><path d="M419.6781471837312,112.80207384377718L517.3409837018698,208.8737550470978L558.9404290728271,102.28113717399538Z" fill="#f5d27b" stroke="#f5d27b"></path><path d="M558.9404290728271,102.28113717399538L517.3409837018698,208.8737550470978L703.9359463937581,234.17505618184805Z" fill="#e7e483" stroke="#e7e483"></path><path d="M558.9404290728271,102.28113717399538L703.9359463937581,234.17505618184805L724.7816281579435,25.425820592790842Z" fill="#dbc56c" stroke="#dbc56c"></path><path d="M724.7816281579435,25.425820592790842L703.9359463937581,234.17505618184805L836.913501676172,81.26489158719778Z" fill="#c8b963" stroke="#c8b963"></path><path d="M836.913501676172,81.26489158719778L703.9359463937581,234.17505618184805L838.6966018751264,196.57679714262486Z" fill="#c0cf70" stroke="#c0cf70"></path><path d="M836.913501676172,81.26489158719778L838.6966018751264,196.57679714262486L977.8187191206962,106.66503240354359Z" fill="#a9b262" stroke="#a9b262"></path><path d="M977.8187191206962,106.66503240354359L838.6966018751264,196.57679714262486L973.6293671652675,253.11723729595542Z" fill="#9dc36e" stroke="#9dc36e"></path><path d="M977.8187191206962,106.66503240354359L973.6293671652675,253.11723729595542L1106.621299982071,120.49806911498308Z" fill="#85b060" stroke="#85b060"></path><path d="M1106.621299982071,120.49806911498308L973.6293671652675,253.11723729595542L1182.1769445296377,196.002408368513Z" fill="#80b064" stroke="#80b064"></path><path d="M1106.621299982071,120.49806911498308L1182.1769445296377,196.002408368513L1219.669740088284,173.74434574507177Z" fill="#809d57" stroke="#809d57"></path><path d="M1312.414791751653,129.34790049679577L1219.669740088284,173.74434574507177L1305.9802433196455,324.7617875598371Z" fill="#809d5e" stroke="#809d5e"></path><path d="M1312.414791751653,129.34790049679577L1305.9802433196455,324.7617875598371L1319.4327412638813,671.877798428759Z" fill="#6da258" stroke="#6da258"></path><path d="M-75.34752345643938,259.69924670644104L-87.62925194576383,338.2051901612431L57.07243057899177,255.6834519188851Z" fill="#e89063" stroke="#e89063"></path><path d="M57.07243057899177,255.6834519188851L-87.62925194576383,338.2051901612431L92.36944355070591,372.2386653441936Z" fill="#ed9c69" stroke="#ed9c69"></path><path d="M57.07243057899177,255.6834519188851L92.36944355070591,372.2386653441936L266.88632402569056,261.75889757461846Z" fill="#f9b674" stroke="#f9b674"></path><path d="M266.88632402569056,261.75889757461846L92.36944355070591,372.2386653441936L277.14931841008365,379.3562794290483Z" fill="#f6c678" stroke="#f6c678"></path><path d="M266.88632402569056,261.75889757461846L277.14931841008365,379.3562794290483L324.9039623513818,318.47283102571964Z" fill="#fed885" stroke="#fed885"></path><path d="M266.88632402569056,261.75889757461846L324.9039623513818,318.47283102571964L330.06949234753847,244.95824966579676Z" fill="#fedb87" stroke="#fedb87"></path><path d="M330.06949234753847,244.95824966579676L324.9039623513818,318.47283102571964L517.3409837018698,208.8737550470978Z" fill="#ffea94" stroke="#ffea94"></path><path d="M517.3409837018698,208.8737550470978L324.9039623513818,318.47283102571964L545.7641985733062,359.46715428493917Z" fill="#faf299" stroke="#faf299"></path><path d="M517.3409837018698,208.8737550470978L545.7641985733062,359.46715428493917L703.9359463937581,234.17505618184805Z" fill="#e8f696" stroke="#e8f696"></path><path d="M703.9359463937581,234.17505618184805L545.7641985733062,359.46715428493917L632.5311028584838,382.54646063782275Z" fill="#e0f391" stroke="#e0f391"></path><path d="M703.9359463937581,234.17505618184805L632.5311028584838,382.54646063782275L833.8597533479333,387.8094301465899Z" fill="#cbeb84" stroke="#cbeb84"></path><path d="M703.9359463937581,234.17505618184805L833.8597533479333,387.8094301465899L838.6966018751264,196.57679714262486Z" fill="#c0e486" stroke="#c0e486"></path><path d="M838.6966018751264,196.57679714262486L833.8597533479333,387.8094301465899L918.9422461297363,338.7732148077339Z" fill="#afdc84" stroke="#afdc84"></path><path d="M838.6966018751264,196.57679714262486L918.9422461297363,338.7732148077339L973.6293671652675,253.11723729595542Z" fill="#a2d681" stroke="#a2d681"></path><path d="M973.6293671652675,253.11723729595542L918.9422461297363,338.7732148077339L1182.509036930278,384.1165390703827Z" fill="#82c778" stroke="#82c778"></path><path d="M973.6293671652675,253.11723729595542L1182.509036930278,384.1165390703827L1182.1769445296377,196.002408368513Z" fill="#80bc73" stroke="#80bc73"></path><path d="M1182.1769445296377,196.002408368513L1182.509036930278,384.1165390703827L1305.9802433196455,324.7617875598371Z" fill="#80ad6c" stroke="#80ad6c"></path><path d="M1182.1769445296377,196.002408368513L1305.9802433196455,324.7617875598371L1219.669740088284,173.74434574507177Z" fill="#80a968" stroke="#80a968"></path><path d="M-87.62925194576383,338.2051901612431L-126.70092950575054,856.4233190473169L-105.13934556394815,716.3575122132897Z" fill="#61472e" stroke="#61472e"></path><path d="M-87.62925194576383,338.2051901612431L-105.13934556394815,716.3575122132897L-60.43713751249015,466.05351196601987Z" fill="#937043" stroke="#937043"></path><path d="M-87.62925194576383,338.2051901612431L-60.43713751249015,466.05351196601987L92.36944355070591,372.2386653441936Z" fill="#d09453" stroke="#d09453"></path><path d="M92.36944355070591,372.2386653441936L-60.43713751249015,466.05351196601987L74.63582969270647,466.980344876647Z" fill="#c29955" stroke="#c29955"></path><path d="M92.36944355070591,372.2386653441936L74.63582969270647,466.980344876647L230.65880340524018,473.43596239574254Z" fill="#cbae5e" stroke="#cbae5e"></path><path d="M92.36944355070591,372.2386653441936L230.65880340524018,473.43596239574254L277.14931841008365,379.3562794290483Z" fill="#dcc366" stroke="#dcc366"></path><path d="M277.14931841008365,379.3562794290483L230.65880340524018,473.43596239574254L398.285568729043,503.7034489866346Z" fill="#cad170" stroke="#cad170"></path><path d="M277.14931841008365,379.3562794290483L398.285568729043,503.7034489866346L324.9039623513818,318.47283102571964Z" fill="#e2e078" stroke="#e2e078"></path><path d="M324.9039623513818,318.47283102571964L398.285568729043,503.7034489866346L545.7641985733062,359.46715428493917Z" fill="#e5ef86" stroke="#e5ef86"></path><path d="M545.7641985733062,359.46715428493917L398.285568729043,503.7034489866346L548.1956276390702,519.1999442875385Z" fill="#bde982" stroke="#bde982"></path><path d="M545.7641985733062,359.46715428493917L548.1956276390702,519.1999442875385L632.5311028584838,382.54646063782275Z" fill="#c5f383" stroke="#c5f383"></path><path d="M632.5311028584838,382.54646063782275L548.1956276390702,519.1999442875385L660.5202319007367,547.4303542636335Z" fill="#a0e57b" stroke="#a0e57b"></path><path d="M632.5311028584838,382.54646063782275L660.5202319007367,547.4303542636335L833.8597533479333,387.8094301465899Z" fill="#a4e572" stroke="#a4e572"></path><path d="M833.8597533479333,387.8094301465899L660.5202319007367,547.4303542636335L875.2961889188737,516.0127509757876Z" fill="#7cd56e" stroke="#7cd56e"></path><path d="M833.8597533479333,387.8094301465899L875.2961889188737,516.0127509757876L916.1987583059818,521.3204308133572Z" fill="#6ccd6c" stroke="#6ccd6c"></path><path d="M833.8597533479333,387.8094301465899L916.1987583059818,521.3204308133572L918.9422461297363,338.7732148077339Z" fill="#85d76e" stroke="#85d76e"></path><path d="M918.9422461297363,338.7732148077339L916.1987583059818,521.3204308133572L1073.0213593225926,510.52121627144516Z" fill="#5cc466" stroke="#5cc466"></path><path d="M918.9422461297363,338.7732148077339L1073.0213593225926,510.52121627144516L1182.509036930278,384.1165390703827Z" fill="#5fc262" stroke="#5fc262"></path><path d="M1182.509036930278,384.1165390703827L1073.0213593225926,510.52121627144516L1284.5537129882723,492.57600179873407Z" fill="#46a858" stroke="#46a858"></path><path d="M1182.509036930278,384.1165390703827L1284.5537129882723,492.57600179873407L1305.9802433196455,324.7617875598371Z" fill="#64a956" stroke="#64a956"></path><path d="M1305.9802433196455,324.7617875598371L1284.5537129882723,492.57600179873407L1319.4327412638813,671.877798428759Z" fill="#35904c" stroke="#35904c"></path><path d="M-60.43713751249015,466.05351196601987L-105.13934556394815,716.3575122132897L25.18878906033933,688.3706108573824Z" fill="#675836" stroke="#675836"></path><path d="M-60.43713751249015,466.05351196601987L25.18878906033933,688.3706108573824L74.63582969270647,466.980344876647Z" fill="#8b7c48" stroke="#8b7c48"></path><path d="M74.63582969270647,466.980344876647L25.18878906033933,688.3706108573824L224.452959978953,651.257265759632Z" fill="#777f48" stroke="#777f48"></path><path d="M74.63582969270647,466.980344876647L224.452959978953,651.257265759632L230.65880340524018,473.43596239574254Z" fill="#9ea259" stroke="#9ea259"></path><path d="M230.65880340524018,473.43596239574254L224.452959978953,651.257265759632L398.285568729043,503.7034489866346Z" fill="#9bb763" stroke="#9bb763"></path><path d="M398.285568729043,503.7034489866346L224.452959978953,651.257265759632L330.5105848610401,701.6732451505959Z" fill="#7fa85d" stroke="#7fa85d"></path><path d="M398.285568729043,503.7034489866346L330.5105848610401,701.6732451505959L484.5710869319737,647.4881610274315Z" fill="#7fb86a" stroke="#7fb86a"></path><path d="M398.285568729043,503.7034489866346L484.5710869319737,647.4881610274315L548.1956276390702,519.1999442875385Z" fill="#8dcf76" stroke="#8dcf76"></path><path d="M548.1956276390702,519.1999442875385L484.5710869319737,647.4881610274315L660.5202319007367,547.4303542636335Z" fill="#7ad074" stroke="#7ad074"></path><path d="M660.5202319007367,547.4303542636335L484.5710869319737,647.4881610274315L727.5921835843474,729.5001570135355Z" fill="#62b863" stroke="#62b863"></path><path d="M660.5202319007367,547.4303542636335L727.5921835843474,729.5001570135355L845.9705166053027,717.8165872301906Z" fill="#4ba855" stroke="#4ba855"></path><path d="M660.5202319007367,547.4303542636335L845.9705166053027,717.8165872301906L875.2961889188737,516.0127509757876Z" fill="#41b65e" stroke="#41b65e"></path><path d="M875.2961889188737,516.0127509757876L845.9705166053027,717.8165872301906L966.1534138955176,670.4453621059656Z" fill="#27a054" stroke="#27a054"></path><path d="M875.2961889188737,516.0127509757876L966.1534138955176,670.4453621059656L916.1987583059818,521.3204308133572Z" fill="#2fae5c" stroke="#2fae5c"></path><path d="M916.1987583059818,521.3204308133572L966.1534138955176,670.4453621059656L1073.0213593225926,510.52121627144516Z" fill="#1ea658" stroke="#1ea658"></path><path d="M1073.0213593225926,510.52121627144516L966.1534138955176,670.4453621059656L1173.6139055527747,629.7949056699872Z" fill="#00914c" stroke="#00914c"></path><path d="M1073.0213593225926,510.52121627144516L1173.6139055527747,629.7949056699872L1284.5537129882723,492.57600179873407Z" fill="#1c934e" stroke="#1c934e"></path><path d="M1284.5537129882723,492.57600179873407L1173.6139055527747,629.7949056699872L1319.4327412638813,671.877798428759Z" fill="#007a41" stroke="#007a41"></path><path d="M-105.13934556394815,716.3575122132897L-126.70092950575054,856.4233190473169L64.8492646124214,874.5579053834081Z" fill="#66211a" stroke="#66211a"></path><path d="M-105.13934556394815,716.3575122132897L64.8492646124214,874.5579053834081L25.18878906033933,688.3706108573824Z" fill="#6b3c27" stroke="#6b3c27"></path><path d="M25.18878906033933,688.3706108573824L64.8492646124214,874.5579053834081L224.452959978953,651.257265759632Z" fill="#765935" stroke="#765935"></path><path d="M224.452959978953,651.257265759632L64.8492646124214,874.5579053834081L283.0068437755108,838.8456589076668Z" fill="#7c5f36" stroke="#7c5f36"></path><path d="M224.452959978953,651.257265759632L283.0068437755108,838.8456589076668L330.5105848610401,701.6732451505959Z" fill="#7f8348" stroke="#7f8348"></path><path d="M330.5105848610401,701.6732451505959L283.0068437755108,838.8456589076668L430.3617875184864,840.8321791794151Z" fill="#7f7e49" stroke="#7f7e49"></path><path d="M330.5105848610401,701.6732451505959L430.3617875184864,840.8321791794151L522.4892815388739,780.585034377873Z" fill="#7f9157" stroke="#7f9157"></path><path d="M330.5105848610401,701.6732451505959L522.4892815388739,780.585034377873L484.5710869319737,647.4881610274315Z" fill="#7da360" stroke="#7da360"></path><path d="M484.5710869319737,647.4881610274315L522.4892815388739,780.585034377873L727.5921835843474,729.5001570135355Z" fill="#6ba65d" stroke="#6ba65d"></path><path d="M727.5921835843474,729.5001570135355L522.4892815388739,780.585034377873L639.4068968854845,822.5216782372445Z" fill="#61924f" stroke="#61924f"></path><path d="M727.5921835843474,729.5001570135355L639.4068968854845,822.5216782372445L768.5063163377345,861.301326462999Z" fill="#528542" stroke="#528542"></path><path d="M727.5921835843474,729.5001570135355L768.5063163377345,861.301326462999L845.9705166053027,717.8165872301906Z" fill="#438845" stroke="#438845"></path><path d="M845.9705166053027,717.8165872301906L768.5063163377345,861.301326462999L937.9229169432074,829.8900920245796Z" fill="#33773f" stroke="#33773f"></path><path d="M845.9705166053027,717.8165872301906L937.9229169432074,829.8900920245796L966.1534138955176,670.4453621059656Z" fill="#218043" stroke="#218043"></path><path d="M966.1534138955176,670.4453621059656L937.9229169432074,829.8900920245796L1066.553047830239,836.2079307530075Z" fill="#0e6c39" stroke="#0e6c39"></path><path d="M966.1534138955176,670.4453621059656L1066.553047830239,836.2079307530075L1173.6139055527747,629.7949056699872Z" fill="#00743d" stroke="#00743d"></path><path d="M1173.6139055527747,629.7949056699872L1066.553047830239,836.2079307530075L1237.129880078137,855.2061896771193Z" fill="#00572e" stroke="#00572e"></path><path d="M1173.6139055527747,629.7949056699872L1237.129880078137,855.2061896771193L1319.4327412638813,671.877798428759Z" fill="#005b30" stroke="#005b30"></path><path d="M64.8492646124214,874.5579053834081L1237.129880078137,855.2061896771193L768.5063163377345,861.301326462999Z" fill="#56763c" stroke="#56763c"></path><path d="M64.8492646124214,874.5579053834081L768.5063163377345,861.301326462999L430.3617875184864,840.8321791794151Z" fill="#7f794a" stroke="#7f794a"></path><path d="M64.8492646124214,874.5579053834081L430.3617875184864,840.8321791794151L283.0068437755108,838.8456589076668Z" fill="#7e5d34" stroke="#7e5d34"></path><path d="M430.3617875184864,840.8321791794151L768.5063163377345,861.301326462999L639.4068968854845,822.5216782372445Z" fill="#648248" stroke="#648248"></path><path d="M430.3617875184864,840.8321791794151L639.4068968854845,822.5216782372445L522.4892815388739,780.585034377873Z" fill="#718b51" stroke="#718b51"></path><path d="M768.5063163377345,861.301326462999L1237.129880078137,855.2061896771193L1066.553047830239,836.2079307530075Z" fill="#04532d" stroke="#04532d"></path><path d="M768.5063163377345,861.301326462999L1066.553047830239,836.2079307530075L937.9229169432074,829.8900920245796Z" fill="#1f6334" stroke="#1f6334"></path></g></svg>